<svg xmlns="http://www.w3.org/2000/svg" width="229.065" height="80.382" viewBox="0 0 229.065 80.382">
  <g id="Group_3" data-name="Group 3" transform="translate(-482.55 -134.49)">
    <path id="Path_5" data-name="Path 5" d="M486.5,190v-3.1h-2.852V190h-1.1V183.24h1.1v2.767H486.5V183.24h1.1V190Zm6.7-2.947L495.347,190h-1.305l-2.025-2.8h-.791V190h-1.1V183.24h1.953c1.846,0,2.8.659,2.8,1.941A1.957,1.957,0,0,1,493.2,187.05Zm-1.043-2.96h-.935v2.265h.959c.982,0,1.521-.336,1.521-1.175C493.705,184.427,493.239,184.09,492.16,184.09Zm4.637-.85,1.834,5.655h.047l1.821-5.655h1.138L499.194,190h-1.126l-2.456-6.757Zm9.035,5.1h-2.744L502.55,190H501.41l2.409-6.757h1.33L507.557,190h-1.173Zm-2.456-.886h2.167l-1.065-3.247h-.049Zm7.225-3.307V190h-1.1v-5.846h-2.1v-.911h5.32l-.144.911Zm5.1,5.966a3.664,3.664,0,0,1-2.563-.935l.634-.695a2.7,2.7,0,0,0,1.905.732c.947,0,1.474-.372,1.474-1.055,0-.575-.3-.911-1.474-1.234-1.449-.407-2.216-1.018-2.216-2.025s.9-1.785,2.336-1.785a3.321,3.321,0,0,1,2.336.852l-.647.658a2.435,2.435,0,0,0-1.665-.61c-.8,0-1.222.3-1.222.839,0,.516.324.791,1.57,1.15,1.138.324,2.156.852,2.156,2.121C518.329,189.219,517.335,190.117,515.705,190.117Zm5.44-.12h-1.1V183.24h1.1Zm.049-3.618,2.8-3.139h1.295l-2.8,3.1L525.495,190H524.1Zm5.56,3.618V183.24h1.1V190Z" transform="translate(0 23.413)" fill="#15264c"/>
    <text id="_" data-name=" " transform="translate(529.114 208.522)" fill="#424448" font-size="5" font-family="SegoeUI, Segoe UI"><tspan x="0" y="0"> </tspan></text>
    <path id="Path_6" data-name="Path 6" d="M517.609,189.064h3.607l-.144.933h-4.7v-.838l3.6-5.007h-3.212v-.911H521.2v.85Zm8.615-.72h-2.742L522.942,190H521.8l2.409-6.757h1.329L527.95,190h-1.173Zm-2.455-.886h2.167l-1.065-3.247h-.049Zm5.2-4.218,1.833,5.655h.049l1.821-5.655h1.138L531.364,190h-1.126l-2.456-6.757Zm8.64,6.877c-1.785,0-3.055-1.2-3.055-3.5,0-2.24,1.27-3.5,3.055-3.5,1.809,0,3.067,1.21,3.067,3.5C540.675,188.871,539.418,190.117,537.609,190.117Zm0-6.1c-1.15,0-1.868.719-1.868,2.6,0,1.905.754,2.6,1.868,2.6,1.163,0,1.881-.707,1.881-2.6S538.772,184.019,537.609,184.019ZM544.475,190h-1.8V183.24h1.677c1.724,0,3.582.539,3.582,3.356C547.937,189.327,546.044,190,544.475,190Zm.095-5.87h-.79V189.1h.79c1.055,0,2.181-.443,2.181-2.5C546.751,184.4,545.577,184.127,544.57,184.127Z" transform="translate(16.285 23.413)" fill="#15264c"/>
    <text id="_2" data-name=" " transform="translate(564.966 208.522)" fill="#424448" font-size="5" font-family="SegoeUI, Segoe UI"><tspan x="0" y="0"> </tspan></text>
    <path id="Path_7" data-name="Path 7" d="M541.81,189.025h3.606l-.144.933h-4.7v-.839l3.594-5.007h-3.21V183.2H545.4v.85Zm8.615-.72h-2.744l-.539,1.653H546l2.407-6.757h1.33l2.409,6.757h-1.175Zm-2.456-.886h2.169l-1.067-3.247h-.047Z" transform="translate(27.937 23.452)" fill="#15264c"/>
    <text id="_3" data-name=" " transform="translate(580.159 208.522)" fill="#424448" font-size="5" font-family="SegoeUI, Segoe UI"><tspan x="0" y="0"> </tspan></text>
    <path id="Path_8" data-name="Path 8" d="M557.205,190l-.311-3.45c-.061-.719-.084-1.293-.084-2.144h-.047l-1.547,4.9H554.2l-1.665-4.9h-.047c0,.707-.012,1.473-.061,2.132L552.149,190h-1.067l.624-6.757h1.425l1.558,4.828h.047l1.474-4.828h1.461l.612,6.757Zm3.08,0V183.24h1.1V190Zm6.7-2.947L569.128,190h-1.307l-2.024-2.8h-.791V190h-1.1V183.24h1.953c1.844,0,2.8.659,2.8,1.941A1.955,1.955,0,0,1,566.982,187.05Zm-1.041-2.96h-.935v2.265h.958c.982,0,1.521-.336,1.521-1.175C567.486,184.427,567.018,184.09,565.941,184.09Zm7.249,6.027c-1.785,0-3.055-1.2-3.055-3.5,0-2.24,1.27-3.5,3.055-3.5,1.809,0,3.067,1.21,3.067,3.5C576.256,188.871,575,190.117,573.19,190.117Zm0-6.1c-1.15,0-1.87.719-1.87,2.6,0,1.905.756,2.6,1.87,2.6,1.161,0,1.881-.707,1.881-2.6S574.351,184.019,573.19,184.019Zm5-.779,1.832,5.655h.049l1.821-5.655h1.138L580.582,190h-1.126L577,183.24ZM584.465,190V183.24h1.1V190Zm7.345,0-2.791-5.5h-.049a20.583,20.583,0,0,1,.132,2.2V190h-1.018V183.24h1.4l2.816,5.536h.047a16.7,16.7,0,0,1-.144-2.241V183.24h1.018V190Zm5.56.12a3.668,3.668,0,0,1-2.564-.935l.636-.695a2.7,2.7,0,0,0,1.9.732c.947,0,1.474-.372,1.474-1.055,0-.575-.3-.911-1.474-1.234-1.45-.407-2.216-1.018-2.216-2.025s.9-1.785,2.336-1.785a3.324,3.324,0,0,1,2.336.852l-.647.658a2.44,2.44,0,0,0-1.665-.61c-.8,0-1.222.3-1.222.839,0,.516.323.791,1.57,1.15,1.138.324,2.156.852,2.156,2.121C599.994,189.219,599,190.117,597.37,190.117Zm5.44-.12h-1.1V183.24h1.1Zm.047-3.618,2.8-3.139h1.293l-2.8,3.1L607.159,190h-1.39Zm7.56,3.738c-1.785,0-3.055-1.2-3.055-3.5,0-2.24,1.27-3.5,3.055-3.5,1.809,0,3.068,1.21,3.068,3.5C613.485,188.871,612.226,190.117,610.417,190.117Zm0-6.1c-1.15,0-1.868.719-1.868,2.6,0,1.905.754,2.6,1.868,2.6,1.163,0,1.882-.707,1.882-2.6S611.58,184.019,610.417,184.019Z" transform="translate(32.995 23.413)" fill="#15264c"/>
    <text id="_4" data-name=" " transform="translate(647.224 208.522)" fill="#424448" font-size="5" font-family="SegoeUI, Segoe UI"><tspan x="0" y="0"> </tspan></text>
    <path id="Path_9" data-name="Path 9" d="M599.407,190.117c-1.785,0-3.056-1.2-3.056-3.5,0-2.24,1.271-3.5,3.056-3.5,1.809,0,3.067,1.21,3.067,3.5C602.474,188.871,601.216,190.117,599.407,190.117Zm0-6.1c-1.151,0-1.87.719-1.87,2.6,0,1.905.754,2.6,1.87,2.6,1.161,0,1.88-.707,1.88-2.6S600.569,184.019,599.407,184.019Zm6.7,6.1a3.668,3.668,0,0,1-2.564-.935l.636-.695a2.7,2.7,0,0,0,1.905.732c.947,0,1.473-.372,1.473-1.055,0-.575-.3-.911-1.473-1.234-1.45-.407-2.216-1.018-2.216-2.025s.9-1.785,2.336-1.785a3.324,3.324,0,0,1,2.336.852l-.647.658a2.44,2.44,0,0,0-1.665-.61c-.8,0-1.222.3-1.222.839,0,.516.323.791,1.569,1.15,1.139.324,2.157.852,2.157,2.121C608.729,189.219,607.734,190.117,606.1,190.117Zm4.338-.12V183.24h1.1V190Zm3.1-3.4a3.272,3.272,0,0,1,5.415-2.673l-.646.647a2.345,2.345,0,0,0-1.582-.563c-1.03,0-1.988.647-1.988,2.588,0,1.856.669,2.624,1.88,2.624a3.151,3.151,0,0,0,1.307-.264V187.1h-1.295l-.144-.874h2.529v3.295a5.041,5.041,0,0,1-2.468.6C614.757,190.117,613.546,188.932,613.546,186.6Zm12.533,1.173a2.3,2.3,0,0,1-2.6,2.348,2.271,2.271,0,0,1-2.576-2.348V183.24h1.1v4.481a1.305,1.305,0,0,0,1.474,1.5,1.323,1.323,0,0,0,1.5-1.5V183.24h1.1Zm5.475-.719L633.7,190h-1.307l-2.025-2.8h-.79V190h-1.1V183.24h1.953c1.844,0,2.8.659,2.8,1.941A1.955,1.955,0,0,1,631.555,187.05Zm-1.043-2.96h-.933v2.265h.958c.982,0,1.521-.336,1.521-1.175C632.058,184.427,631.59,184.09,630.512,184.09Zm7.945,4.253h-2.744L635.174,190h-1.138l2.407-6.757h1.33L640.181,190h-1.173ZM636,187.458h2.169L637.1,184.21h-.047ZM645.239,190l-2.793-5.5H642.4a20.529,20.529,0,0,1,.132,2.2V190h-1.018V183.24h1.4l2.815,5.536h.049a16.4,16.4,0,0,1-.144-2.241V183.24h1.018V190Zm2.732.636c.958-.347,1.163-.719,1.163-1.557V183.24h1.1v5.883c0,1.342-.744,1.929-1.953,2.336Zm5.824-6.505v2.012h2.444V187h-2.444v2.108h3.031V190h-4.133V183.24h4.049l-.132.887Z" transform="translate(54.79 23.413)" fill="#15264c"/>
    <path id="Path_10" data-name="Path 10" d="M519.487,188.719V166.129c0-5.856-2.509-8.975-7.226-8.975-5.095,0-8.062,3.118-8.062,9.736v21.828H494.92V134.49H504.2v20.078h.228a12.974,12.974,0,0,1,10.724-5.551c8.748,0,13.615,5.475,13.615,14.755v24.946Z" transform="translate(5.956 0)" fill="#15264c"/>
    <path id="Path_11" data-name="Path 11" d="M522.286,183.751V176.6l19.85-24.339H523.579v-7.453H554v7.15l-19.927,24.034h20.612v7.758Z" transform="translate(19.131 4.968)" fill="#15264c"/>
    <path id="Path_12" data-name="Path 12" d="M607.733,184.886c-9.431,0-17.874-5.324-17.874-15.287v-8.9c0-10.572,8.975-16.352,17.57-16.352,9.431,0,17.872,6.237,17.872,16.2v7.987c0,10.572-8.975,16.352-17.569,16.352m8.138-25.174c0-4.715-3.65-7.453-8.441-7.453-3.88,0-8.139,2.053-8.139,7.681v9.584c0,4.715,3.65,7.529,8.443,7.529,3.878,0,8.138-2.053,8.138-7.681Z" transform="translate(51.664 4.746)" fill="#15264c"/>
    <rect id="Rectangle_31" data-name="Rectangle 31" width="9.284" height="9.284" transform="translate(683.389 179.434)" fill="#0091d9"/>
    <path id="Path_13" data-name="Path 13" d="M548.686,144.81c-.256,0-.514.007-.772.022V153.2c3.341.84,5.108,3.815,5.108,8.72v21.823H562.3V159.565c0-9.278-4.868-14.755-13.615-14.755" transform="translate(31.47 4.969)" fill="#15264c"/>
    <path id="Path_14" data-name="Path 14" d="M562.154,144.81c-.256,0-.514.007-.772.022V153.2c3.341.84,5.108,3.815,5.108,8.72v21.823h9.278V159.565c0-9.278-4.868-14.755-13.615-14.755" transform="translate(37.954 4.969)" fill="#15264c"/>
    <path id="Path_15" data-name="Path 15" d="M575.623,144.81c-.258,0-.516.007-.772.022V153.2c3.341.84,5.108,3.815,5.108,8.72v21.823h9.278V159.565c0-9.278-4.868-14.755-13.615-14.755" transform="translate(44.439 4.969)" fill="#15264c"/>
  </g>
</svg>
