<?xml version="1.0" encoding="UTF-8"?>
<svg xmlns="http://www.w3.org/2000/svg" xmlns:xlink="http://www.w3.org/1999/xlink" width="587pt" height="523pt" viewBox="0 0 587 523" version="1.1">
<g id="surface1">
<path style=" stroke:none;fill-rule:nonzero;fill:rgb(0%,32.899475%,65.098572%);fill-opacity:1;" d="M 0.957031 480.742188 L 14.210938 480.742188 L 44.417969 511.441406 L 44.417969 487.832031 C 44.417969 485.316406 44.074219 483.742188 43.390625 483.113281 C 42.484375 482.273438 41.046875 481.851563 39.089844 481.851563 L 37.355469 481.851563 L 37.355469 480.742188 L 54.683594 480.742188 L 54.683594 481.851563 L 52.925781 481.851563 C 50.804688 481.851563 49.316406 482.375 48.425781 483.421875 C 47.890625 484.070313 47.617188 485.539063 47.617188 487.832031 L 47.617188 522.285156 L 46.304688 522.285156 L 13.851563 489.355469 L 13.851563 514.535156 C 13.851563 517.050781 14.183594 518.625 14.839844 519.25 C 15.773438 520.09375 17.210938 520.515625 19.15625 520.515625 L 20.914063 520.515625 L 20.914063 521.625 L 3.585938 521.625 L 3.585938 520.515625 L 5.320313 520.515625 C 7.453125 520.515625 8.953125 519.992188 9.847656 518.945313 C 10.378906 518.296875 10.652344 516.824219 10.652344 514.535156 L 10.652344 486.105469 C 9.226563 484.71875 8.136719 483.804688 7.402344 483.363281 C 6.660156 482.917969 5.582031 482.507813 4.15625 482.117188 C 3.449219 481.945313 2.382813 481.851563 0.957031 481.851563 Z M 143.160156 479.816406 C 149.546875 479.816406 155.085938 481.832031 159.761719 485.859375 C 164.445313 489.886719 166.789063 494.914063 166.789063 500.949219 C 166.789063 507.15625 164.433594 512.304688 159.710938 516.40625 C 155 520.503906 149.285156 522.550781 142.578125 522.550781 C 135.808594 522.550781 130.121094 520.546875 125.507813 516.546875 C 120.898438 512.550781 118.589844 507.382813 118.589844 501.03125 C 118.589844 494.542969 121.257813 489.25 126.574219 485.148438 C 131.199219 481.59375 136.726563 479.816406 143.160156 479.816406 Z M 142.46875 481.972656 C 138.078125 481.972656 134.546875 483.332031 131.894531 486.042969 C 128.582031 489.425781 126.921875 494.371094 126.921875 500.886719 C 126.921875 507.554688 128.632813 512.695313 132.066406 516.292969 C 134.707031 519.023438 138.179688 520.394531 142.503906 520.394531 C 147.128906 520.394531 150.933594 518.890625 153.945313 515.902344 C 156.960938 512.898438 158.460938 508.183594 158.460938 501.726563 C 158.460938 494.730469 156.796875 489.507813 153.488281 486.074219 C 150.835938 483.339844 147.164063 481.972656 142.46875 481.972656 Z M 282.800781 480.742188 L 282.800781 481.851563 C 281.0625 482.117188 279.738281 482.582031 278.84375 483.25 C 277.566406 484.234375 276.429688 485.757813 275.4375 487.800781 L 258.316406 522.550781 L 256.976563 522.550781 L 238.542969 487.339844 C 237.601563 485.519531 236.933594 484.410156 236.546875 484.007813 C 235.941406 483.382813 235.195313 482.890625 234.304688 482.53125 C 233.421875 482.179688 232.234375 481.953125 230.734375 481.851563 L 230.734375 480.742188 L 250.839844 480.742188 L 250.839844 481.851563 C 248.558594 482.035156 247.085938 482.355469 246.402344 482.816406 C 245.734375 483.28125 245.386719 483.867188 245.386719 484.59375 C 245.386719 485.59375 245.945313 487.164063 247.058594 489.292969 L 259.59375 513.230469 L 271.234375 489.589844 C 272.375 487.257813 272.945313 485.644531 272.945313 484.738281 C 272.945313 484.164063 272.585938 483.597656 271.890625 483.074219 C 271.183594 482.539063 269.992188 482.160156 268.332031 481.945313 C 268.207031 481.921875 267.996094 481.890625 267.714844 481.851563 L 267.714844 480.742188 Z M 367.050781 520.515625 L 367.050781 521.625 L 345.925781 521.625 L 345.925781 520.515625 L 347.671875 520.515625 C 349.71875 520.515625 351.195313 520.023438 352.125 519.046875 C 352.707031 518.398438 352.992188 516.855469 352.992188 514.410156 L 352.992188 487.957031 C 352.992188 485.890625 352.828125 484.523438 352.519531 483.867188 C 352.273438 483.363281 351.777344 482.929688 351.019531 482.570313 C 349.953125 482.089844 348.839844 481.851563 347.671875 481.851563 L 345.925781 481.851563 L 345.925781 480.742188 L 367.050781 480.742188 L 367.050781 481.851563 L 365.277344 481.851563 C 363.269531 481.851563 361.804688 482.34375 360.886719 483.320313 C 360.28125 483.96875 359.984375 485.511719 359.984375 487.957031 L 359.984375 514.410156 C 359.984375 516.476563 360.144531 517.84375 360.453125 518.5 C 360.6875 519.003906 361.199219 519.4375 361.980469 519.796875 C 363.019531 520.28125 364.109375 520.515625 365.277344 520.515625 Z M 428.164063 480.742188 L 441.417969 480.742188 L 471.628906 511.441406 L 471.628906 487.832031 C 471.628906 485.316406 471.28125 483.742188 470.601563 483.113281 C 469.695313 482.273438 468.257813 481.851563 466.296875 481.851563 L 464.5625 481.851563 L 464.5625 480.742188 L 481.894531 480.742188 L 481.894531 481.851563 L 480.132813 481.851563 C 478.011719 481.851563 476.527344 482.375 475.632813 483.421875 C 475.101563 484.070313 474.828125 485.539063 474.828125 487.832031 L 474.828125 522.285156 L 473.515625 522.285156 L 441.058594 489.355469 L 441.058594 514.535156 C 441.058594 517.050781 441.394531 518.625 442.050781 519.25 C 442.980469 520.09375 444.417969 520.515625 446.363281 520.515625 L 448.125 520.515625 L 448.125 521.625 L 430.796875 521.625 L 430.796875 520.515625 L 432.53125 520.515625 C 434.664063 520.515625 436.164063 519.992188 437.054688 518.945313 C 437.589844 518.296875 437.859375 516.824219 437.859375 514.535156 L 437.859375 486.105469 C 436.433594 484.71875 435.34375 483.804688 434.613281 483.363281 C 433.867188 482.917969 432.789063 482.507813 431.363281 482.117188 C 430.660156 481.945313 429.59375 481.851563 428.164063 481.851563 Z M 558.742188 482.960938 L 558.742188 499.117188 L 569.601563 499.117188 C 572.414063 499.117188 574.289063 498.769531 575.230469 498.070313 C 576.496094 497.144531 577.1875 495.519531 577.339844 493.199219 L 578.675781 493.199219 L 578.675781 507.441406 L 577.339844 507.441406 C 577.003906 505.449219 576.65625 504.164063 576.320313 503.597656 C 575.886719 502.898438 575.167969 502.34375 574.175781 501.945313 C 573.183594 501.542969 571.660156 501.335938 569.601563 501.335938 L 558.742188 501.335938 L 558.742188 514.820313 C 558.742188 516.632813 558.84375 517.730469 559.027344 518.121094 C 559.226563 518.511719 559.5625 518.832031 560.042969 519.054688 C 560.527344 519.292969 561.457031 519.40625 562.808594 519.40625 L 571.152344 519.40625 C 573.929688 519.40625 575.949219 519.242188 577.214844 518.921875 C 578.464844 518.605469 579.679688 517.96875 580.835938 517.019531 C 582.335938 515.777344 583.871094 513.898438 585.445313 511.390625 L 586.933594 511.390625 L 582.679688 521.625 L 544.683594 521.625 L 544.683594 520.515625 L 546.433594 520.515625 C 547.597656 520.515625 548.699219 520.28125 549.742188 519.816406 C 550.523438 519.5 551.058594 519.015625 551.328125 518.367188 C 551.613281 517.71875 551.75 516.40625 551.75 514.410156 L 551.75 487.832031 C 551.75 485.242188 551.441406 483.648438 550.808594 483.054688 C 549.929688 482.253906 548.476563 481.851563 546.433594 481.851563 L 544.683594 481.851563 L 544.683594 480.742188 L 582.691406 480.742188 L 583.214844 489.746094 L 581.800781 489.746094 C 581.292969 487.574219 580.734375 486.085938 580.113281 485.273438 C 579.496094 484.460938 578.578125 483.84375 577.375 483.414063 C 576.40625 483.113281 574.695313 482.960938 572.253906 482.960938 Z M 0.953125 409.027344 L 17.835938 409.027344 L 56.316406 447.96875 L 56.316406 418.023438 C 56.316406 414.828125 55.875 412.835938 55.007813 412.039063 C 53.851563 410.972656 52.023438 410.4375 49.527344 410.4375 L 47.316406 410.4375 L 47.316406 409.027344 L 69.390625 409.027344 L 69.390625 410.4375 L 67.148438 410.4375 C 64.449219 410.4375 62.554688 411.101563 61.417969 412.429688 C 60.738281 413.253906 60.390625 415.117188 60.390625 418.023438 L 60.390625 461.722656 L 58.71875 461.722656 L 17.378906 419.953125 L 17.378906 451.894531 C 17.378906 455.085938 17.804688 457.082031 18.640625 457.875 C 19.824219 458.945313 21.65625 459.480469 24.136719 459.480469 L 26.378906 459.480469 L 26.378906 460.886719 L 4.300781 460.886719 L 4.300781 459.480469 L 6.511719 459.480469 C 9.230469 459.480469 11.140625 458.816406 12.277344 457.484375 C 12.957031 456.664063 13.304688 454.800781 13.304688 451.894531 L 13.304688 415.832031 C 11.488281 414.074219 10.097656 412.914063 9.167969 412.351563 C 8.21875 411.792969 6.84375 411.269531 5.027344 410.773438 C 4.128906 410.554688 2.769531 410.4375 0.953125 410.4375 Z M 134.664063 443.601563 L 110.332031 443.601563 L 106.132813 451.722656 C 105.089844 453.730469 104.554688 455.242188 104.554688 456.234375 C 104.554688 457.015625 105.011719 457.71875 105.925781 458.320313 C 106.828125 458.90625 108.800781 459.296875 111.816406 459.480469 L 111.816406 460.886719 L 92.015625 460.886719 L 92.015625 459.480469 C 94.636719 459.101563 96.324219 458.605469 97.097656 457.992188 C 98.679688 456.769531 100.414063 454.277344 102.328125 450.535156 L 124.417969 407.855469 L 125.980469 407.855469 L 147.820313 450.992188 C 149.570313 454.460938 151.167969 456.703125 152.605469 457.746094 C 154.039063 458.777344 156.03125 459.347656 158.605469 459.480469 L 158.605469 460.886719 L 133.84375 460.886719 L 133.84375 459.480469 C 136.339844 459.375 138.027344 459.035156 138.914063 458.449219 C 139.796875 457.863281 140.222656 457.148438 140.222656 456.296875 C 140.222656 455.179688 139.609375 453.40625 138.378906 450.980469 Z M 133.242188 440.785156 L 122.664063 419.863281 L 111.800781 440.785156 Z M 244.375 460.886719 L 227.558594 460.886719 L 206.222656 436.640625 C 204.691406 436.691406 203.445313 436.71875 202.480469 436.71875 C 202.089844 436.71875 201.660156 436.703125 201.21875 436.691406 C 200.761719 436.679688 200.304688 436.664063 199.8125 436.640625 L 199.8125 451.734375 C 199.8125 454.996094 200.238281 457.015625 201.109375 457.796875 C 202.277344 458.917969 204.03125 459.480469 206.367188 459.480469 L 208.8125 459.480469 L 208.8125 460.886719 L 181.90625 460.886719 L 181.90625 459.480469 L 184.261719 459.480469 C 186.914063 459.480469 188.808594 458.761719 189.945313 457.34375 C 190.59375 456.558594 190.90625 454.683594 190.90625 451.734375 L 190.90625 418.179688 C 190.90625 414.921875 190.480469 412.898438 189.613281 412.117188 C 188.414063 410.996094 186.628906 410.4375 184.261719 410.4375 L 181.90625 410.4375 L 181.90625 409.027344 L 204.773438 409.027344 C 211.449219 409.027344 216.363281 409.433594 219.519531 410.226563 C 222.695313 411.035156 225.378906 412.523438 227.574219 414.671875 C 229.785156 416.824219 230.890625 419.390625 230.890625 422.378906 C 230.890625 425.570313 229.625 428.335938 227.117188 430.683594 C 224.589844 433.027344 220.703125 434.683594 215.414063 435.660156 L 228.410156 450.511719 C 231.378906 453.925781 233.921875 456.207031 236.054688 457.328125 C 238.167969 458.464844 240.949219 459.167969 244.375 459.480469 Z M 199.8125 434.214844 C 200.398438 434.214844 200.902344 434.214844 201.328125 434.226563 C 201.757813 434.242188 202.101563 434.253906 202.371094 434.253906 C 208.292969 434.253906 212.761719 433.183594 215.761719 431.046875 C 218.777344 428.894531 220.277344 426.171875 220.277344 422.859375 C 220.277344 419.628906 219.0625 416.992188 216.644531 414.960938 C 214.214844 412.9375 210.992188 411.921875 206.996094 411.921875 C 205.230469 411.921875 202.828125 412.15625 199.8125 412.625 Z M 298.722656 407.855469 C 306.855469 407.855469 313.914063 410.410156 319.867188 415.519531 C 325.835938 420.632813 328.820313 427.003906 328.820313 434.65625 C 328.820313 442.53125 325.816406 449.0625 319.800781 454.265625 C 313.800781 459.46875 306.523438 462.0625 297.980469 462.0625 C 289.359375 462.0625 282.109375 459.519531 276.234375 454.449219 C 270.359375 449.375 267.425781 442.820313 267.425781 434.761719 C 267.425781 426.535156 270.820313 419.824219 277.59375 414.621094 C 283.484375 410.109375 290.527344 407.855469 298.722656 407.855469 Z M 297.839844 410.59375 C 292.246094 410.59375 287.746094 412.3125 284.367188 415.753906 C 280.152344 420.042969 278.035156 426.316406 278.035156 434.582031 C 278.035156 443.039063 280.214844 449.558594 284.589844 454.121094 C 287.953125 457.589844 292.375 459.324219 297.886719 459.324219 C 303.773438 459.324219 308.621094 457.421875 312.460938 453.628906 C 316.296875 449.820313 318.207031 443.835938 318.207031 435.648438 C 318.207031 426.769531 316.089844 420.148438 311.875 415.792969 C 308.496094 412.324219 303.820313 410.59375 297.839844 410.59375 Z M 354.757813 460.886719 L 354.757813 459.480469 L 357.109375 459.480469 C 359.765625 459.480469 361.644531 458.777344 362.746094 457.382813 C 363.425781 456.546875 363.757813 454.65625 363.757813 451.734375 L 363.757813 418.179688 C 363.757813 414.945313 363.332031 412.925781 362.464844 412.117188 C 361.265625 410.996094 359.480469 410.4375 357.109375 410.4375 L 354.757813 410.4375 L 354.757813 409.027344 L 380.292969 409.027344 C 389.671875 409.027344 396.808594 409.902344 401.6875 411.660156 C 406.582031 413.421875 410.515625 416.355469 413.484375 420.460938 C 416.46875 424.566406 417.953125 429.3125 417.953125 434.683594 C 417.953125 441.90625 415.300781 447.929688 409.992188 452.777344 C 404.039063 458.191406 394.976563 460.886719 382.785156 460.886719 Z M 372.664063 457.082031 C 376.582031 457.796875 379.851563 458.152344 382.503906 458.152344 C 389.640625 458.152344 395.5625 456.078125 400.28125 451.917969 C 404.988281 447.773438 407.339844 442.140625 407.339844 435.035156 C 407.339844 427.878906 404.988281 422.234375 400.28125 418.113281 C 395.5625 413.980469 389.515625 411.921875 382.125 411.921875 C 379.359375 411.921875 376.203125 412.285156 372.664063 413.03125 Z M 440.921875 409.027344 L 457.804688 409.027344 L 496.285156 447.96875 L 496.285156 418.023438 C 496.285156 414.828125 495.84375 412.835938 494.976563 412.039063 C 493.820313 410.972656 491.988281 410.4375 489.496094 410.4375 L 487.285156 410.4375 L 487.285156 409.027344 L 509.359375 409.027344 L 509.359375 410.4375 L 507.117188 410.4375 C 504.417969 410.4375 502.523438 411.101563 501.386719 412.429688 C 500.707031 413.253906 500.359375 415.117188 500.359375 418.023438 L 500.359375 461.722656 L 498.6875 461.722656 L 457.347656 419.953125 L 457.347656 451.894531 C 457.347656 455.085938 457.773438 457.082031 458.609375 457.875 C 459.792969 458.945313 461.625 459.480469 464.105469 459.480469 L 466.347656 459.480469 L 466.347656 460.886719 L 444.269531 460.886719 L 444.269531 459.480469 L 446.480469 459.480469 C 449.199219 459.480469 451.109375 458.816406 452.246094 457.484375 C 452.925781 456.664063 453.273438 454.800781 453.273438 451.894531 L 453.273438 415.832031 C 451.457031 414.074219 450.066406 412.914063 449.136719 412.351563 C 448.1875 411.792969 446.8125 411.269531 444.996094 410.773438 C 444.097656 410.554688 442.738281 410.4375 440.921875 410.4375 Z M 551.027344 411.84375 L 551.027344 432.339844 L 564.859375 432.339844 C 568.445313 432.339844 570.828125 431.894531 572.027344 431.007813 C 573.640625 429.835938 574.523438 427.773438 574.714844 424.828125 L 576.417969 424.828125 L 576.417969 442.898438 L 574.714844 442.898438 C 574.285156 440.367188 573.84375 438.738281 573.417969 438.023438 C 572.867188 437.136719 571.949219 436.429688 570.6875 435.921875 C 569.421875 435.414063 567.480469 435.152344 564.859375 435.152344 L 551.027344 435.152344 L 551.027344 452.257813 C 551.027344 454.550781 551.152344 455.945313 551.390625 456.441406 C 551.644531 456.9375 552.070313 457.34375 552.6875 457.628906 C 553.300781 457.929688 554.484375 458.070313 556.207031 458.070313 L 566.835938 458.070313 C 570.371094 458.070313 572.945313 457.863281 574.554688 457.460938 C 576.148438 457.054688 577.699219 456.246094 579.164063 455.046875 C 581.078125 453.46875 583.035156 451.085938 585.039063 447.902344 L 586.933594 447.902344 L 581.519531 460.886719 L 533.121094 460.886719 L 533.121094 459.480469 L 535.347656 459.480469 C 536.832031 459.480469 538.238281 459.179688 539.5625 458.59375 C 540.558594 458.191406 541.238281 457.578125 541.585938 456.753906 C 541.949219 455.933594 542.121094 454.265625 542.121094 451.734375 L 542.121094 418.023438 C 542.121094 414.738281 541.726563 412.71875 540.921875 411.960938 C 539.800781 410.945313 537.953125 410.4375 535.347656 410.4375 L 533.121094 410.4375 L 533.121094 409.027344 L 581.535156 409.027344 L 582.199219 420.449219 L 580.398438 420.449219 C 579.75 417.695313 579.039063 415.808594 578.25 414.777344 C 577.460938 413.746094 576.292969 412.964844 574.761719 412.417969 C 573.527344 412.039063 571.351563 411.84375 568.238281 411.84375 L 551.027344 411.84375 "/>
<path style=" stroke:none;fill-rule:evenodd;fill:rgb(92.89856%,10.998535%,14.099121%);fill-opacity:1;" d="M 52.144531 324.816406 C 45.289063 330.886719 36.648438 339.992188 2.707031 339.683594 L 2.707031 349.972656 L 159.578125 349.972656 L 159.578125 340.347656 C 127.105469 340.347656 111.699219 335.777344 96.519531 321.242188 C 93.621094 318.078125 81.535156 301.605469 81.144531 288.230469 L 81.144531 162.726563 C 77.066406 160.445313 75.191406 155.703125 72.886719 152.488281 L 72.886719 288.242188 C 72.496094 298.441406 57.59375 320.085938 52.144531 324.816406 Z M 70.824219 39.269531 L 314.386719 333.511719 C 317.074219 336.078125 327.761719 349.90625 335.027344 349.972656 L 448.550781 349.972656 L 448.550781 338.367188 C 416.839844 338.292969 401.738281 331.355469 392.363281 321.617188 L 132.746094 13.988281 C 128.671875 8.191406 122.554688 0.285156 113.449219 0.175781 L 0.953125 0.175781 L 0.953125 11.46875 C 28.671875 11.15625 46.1875 12.34375 70.824219 39.269531 "/>
<path style=" stroke:none;fill-rule:evenodd;fill:rgb(0%,32.899475%,65.098572%);fill-opacity:1;" d="M 209.203125 39.269531 L 452.765625 333.511719 C 455.453125 336.078125 466.140625 349.90625 473.40625 349.972656 L 586.929688 349.972656 L 586.929688 338.367188 C 555.21875 338.292969 540.117188 331.355469 530.742188 321.617188 L 271.125 13.988281 C 267.050781 8.191406 260.933594 0.285156 251.828125 0.175781 L 139.335938 0.175781 L 139.335938 11.46875 C 167.054688 11.15625 184.566406 12.34375 209.203125 39.269531 Z M 537.226563 25.8125 C 544.085938 19.742188 552.726563 10.636719 586.664063 10.945313 L 586.664063 0.65625 L 429.792969 0.65625 L 429.792969 10.277344 C 462.269531 10.277344 477.671875 14.851563 492.851563 29.386719 C 495.753906 32.546875 507.835938 49.019531 508.230469 62.398438 L 508.230469 187.902344 C 512.308594 190.179688 514.179688 194.925781 516.484375 198.140625 L 516.484375 62.386719 C 516.878906 52.1875 531.777344 30.542969 537.226563 25.8125 "/>
</g>
</svg>
